# File created by Blade
# Date/Time:  Wed Jan 21 14:58:10 2015
# Frame Rate: 120.000 fps
#------------------------------------------------------
:FULLY-SPECIFIED
:DEGREES
815
root 16.905296 35.109089 -22.155062 -155.868528 -72.870929 -200.177164
Spine -25.248858 61.383429 -22.518750
Head 8.102229 16.686632 -2.358030
LeftShoulder -14.437684 -18.436182 18.929829
LeftArm -32.081754 4.169115 -22.560952
LeftForeArm 0.015374 0.000000 -4.772468
LeftHand -13.201843 -0.000000 -4.439316
LeftHandThumb1 -26.253704 0.000000 33.147579
RightShoulder 11.548158 5.772982 -19.614232
RightArm 54.569615 8.017649 40.829476
RightForeArm -35.448661 -0.000000 8.091156
RightHand -8.322158 -0.000000 1.929170
RightHandThumb1 -24.326973 -0.000000 -32.862282
LeftUpLeg -16.563062 -35.840636 3.439866
LeftLeg 0.416672 -0.000000 -0.000000
LeftFoot -7.007450 0.288049 -14.107508
LeftToeBase 32.877030 -0.000000 -0.000000
RightUpLeg 9.817230 -36.780538 -3.326407
RightLeg -0.278996 -0.000000 0.000000
RightFoot -39.685489 -50.187756 32.096321
RightToeBase 20.124307 -0.000000 -0.000000
816
root 16.881084 35.106579 -22.159839 -155.619312 -72.948322 -200.516484
Spine -25.216340 61.491179 -22.632747
Head 8.118322 16.852962 -2.173959
LeftShoulder -14.403387 -18.486504 18.985881
LeftArm -32.191609 3.845277 -22.669126
LeftForeArm 0.078035 -0.000000 -4.794550
LeftHand -13.181736 -0.000000 -4.557401
LeftHandThumb1 -26.253704 0.000000 33.147579
RightShoulder 11.652551 6.023150 -19.552295
RightArm 55.189411 7.422496 41.003246
RightForeArm -35.666191 -0.000000 8.102733
RightHand -8.220865 -0.000000 1.902987
RightHandThumb1 -24.326973 -0.000000 -32.862282
LeftUpLeg -16.430474 -35.885071 3.289542
LeftLeg 0.416236 -0.000000 -0.000000
LeftFoot -7.017889 0.236023 -14.123078
LeftToeBase 32.930520 -0.000000 -0.000000
RightUpLeg 9.925412 -36.794552 -3.458786
RightLeg -0.200781 -0.000000 0.000000
RightFoot -39.674522 -50.171759 31.982021
RightToeBase 20.139080 -0.000000 -0.000000
817
root 16.856961 35.104087 -22.165059 -155.401036 -73.003475 -200.823578
Spine -25.209775 61.627625 -22.764863
Head 8.158436 16.999780 -1.972926
LeftShoulder -14.363057 -18.546622 19.008251
LeftArm -32.174948 3.578083 -22.764121
LeftForeArm -0.005880 -0.000000 -4.905052
LeftHand -13.186976 -0.000000 -4.629210
LeftHandThumb1 -26.253704 0.000000 33.147579
RightShoulder 11.740729 6.203453 -19.515622
RightArm 55.739376 6.918808 41.181901
RightForeArm -35.791646 0.000000 8.176182
RightHand -8.284714 -0.000000 1.871567
RightHandThumb1 -24.326973 -0.000000 -32.862282
LeftUpLeg -16.296912 -35.964037 3.156339
LeftLeg 0.405805 -0.000000 -0.000000
LeftFoot -7.065723 0.224327 -14.119017
LeftToeBase 32.969043 -0.000000 -0.000000
RightUpLeg 10.022629 -36.794330 -3.590475
RightLeg -0.104130 -0.000000 0.000000
RightFoot -39.651695 -50.136487 31.827298
RightToeBase 20.187883 -0.000000 -0.000000
818
root 16.833581 35.101898 -22.172345 -155.216077 -73.048809 -201.094031
Spine -25.218683 61.755520 -22.906546
Head 8.199019 17.124266 -1.744349
LeftShoulder -14.303074 -18.639576 19.017051
LeftArm -32.139278 3.276554 -22.782476
LeftForeArm 0.140056 -0.000000 -4.968591
LeftHand -13.135082 -0.000000 -4.808731
LeftHandThumb1 -26.253704 0.000000 33.147579
RightShoulder 11.828015 6.387591 -19.470107
RightArm 56.293043 6.492489 41.419328
RightForeArm -35.995939 -0.000000 8.082763
RightHand -8.119015 -0.000000 1.661337
RightHandThumb1 -24.326973 -0.000000 -32.862282
LeftUpLeg -16.169545 -36.028043 3.034112
LeftLeg 0.405324 -0.000000 -0.000000
LeftFoot -7.101079 0.215843 -14.128999
LeftToeBase 32.902200 -0.000000 -0.000000
RightUpLeg 10.118449 -36.792282 -3.713964
RightLeg -0.002392 -0.000000 0.000000
RightFoot -39.728668 -49.999546 31.872476
RightToeBase 19.983820 -0.000000 -0.000000
819
root 16.811479 35.099768 -22.178289 -155.051772 -73.077032 -201.333672
Spine -25.231312 61.850494 -23.036713
Head 8.290985 17.283172 -1.476223
LeftShoulder -14.265378 -18.735076 18.999074
LeftArm -32.074297 3.164695 -22.860199
LeftForeArm -0.051324 -0.000000 -4.969692
LeftHand -13.131843 -0.000000 -4.693622
LeftHandThumb1 -26.253704 0.000000 33.147579
RightShoulder 11.938361 6.468887 -19.417571
RightArm 56.740481 6.136483 41.526425
RightForeArm -35.999482 -0.000000 8.257639
RightHand -8.161468 -0.000000 1.595400
RightHandThumb1 -24.326973 -0.000000 -32.862282
LeftUpLeg -16.065012 -36.088509 2.925843
LeftLeg 0.418710 -0.000000 -0.000000
LeftFoot -7.147008 0.194278 -14.140163
LeftToeBase 32.997793 -0.000000 -0.000000
RightUpLeg 10.197659 -36.722024 -3.816106
RightLeg 0.086524 -0.000000 -0.000000
RightFoot -39.786150 -49.932127 31.852627
RightToeBase 19.916287 -0.000000 -0.000000
820
root 16.787407 35.098674 -22.184517 -154.913582 -73.074104 -201.547019
Spine -25.294998 61.956027 -23.221877
Head 8.356132 17.289025 -1.241249
LeftShoulder -14.181782 -18.851550 19.006421
LeftArm -32.056699 3.016523 -22.909503
LeftForeArm 0.052959 -0.000000 -4.882943
LeftHand -13.065214 -0.000000 -4.880604
LeftHandThumb1 -26.253704 0.000000 33.147579
RightShoulder 12.003039 6.346451 -19.458921
RightArm 57.327502 6.183142 42.091960
RightForeArm -36.395065 -0.000000 8.309230
RightHand -7.900211 -0.000000 1.456405
RightHandThumb1 -24.326973 -0.000000 -32.862282
LeftUpLeg -15.957244 -36.101177 2.796212
LeftLeg 0.463765 -0.000000 -0.000000
LeftFoot -7.152586 0.137458 -14.207355
LeftToeBase 32.713405 -0.000000 -0.000000
RightUpLeg 10.272700 -36.659565 -3.930764
RightLeg 0.180213 -0.000000 -0.000000
RightFoot -39.797673 -49.843941 31.774378
RightToeBase 19.873213 -0.000000 -0.000000
821
root 16.763561 35.097494 -22.190355 -154.803963 -73.050850 -201.722825
Spine -25.402637 62.059788 -23.441261
Head 8.450674 17.306682 -0.982535
LeftShoulder -14.120178 -18.889697 19.019431
LeftArm -31.899818 2.784331 -22.952136
LeftForeArm 0.105629 -0.000000 -4.797366
LeftHand -13.143337 0.000000 -4.903216
LeftHandThumb1 -26.253704 0.000000 33.147579
RightShoulder 12.084909 6.343341 -19.417979
RightArm 57.677058 5.884434 42.095890
RightForeArm -36.276376 0.000000 8.441146
RightHand -7.810431 0.000000 1.242711
RightHandThumb1 -24.326973 -0.000000 -32.862282
LeftUpLeg -15.861851 -36.095448 2.679519
LeftLeg 0.506205 -0.000000 -0.000000
LeftFoot -7.197290 0.058494 -14.203490
LeftToeBase 32.690809 -0.000000 -0.000000
RightUpLeg 10.337105 -36.551967 -4.028921
RightLeg 0.244333 -0.000000 -0.000000
RightFoot -39.760404 -49.811265 31.603875
RightToeBase 20.034956 -0.000000 -0.000000
822
root 16.738310 35.096565 -22.196492 -154.700040 -73.013884 -201.898321
Spine -25.505273 62.129268 -23.655122
Head 8.569875 17.328635 -0.704626
LeftShoulder -14.038465 -18.962918 19.044432
LeftArm -31.798965 2.683138 -23.027176
LeftForeArm 0.201155 -0.000000 -4.646363
LeftHand -13.194694 -0.000000 -4.906367
LeftHandThumb1 -26.253704 0.000000 33.147579
RightShoulder 12.141191 6.392632 -19.356518
RightArm 58.019889 5.644566 42.209669
RightForeArm -36.202686 -0.000000 8.550087
RightHand -8.059098 -0.000000 1.200966
RightHandThumb1 -24.326973 -0.000000 -32.862282
LeftUpLeg -15.762247 -36.021020 2.531432
LeftLeg 0.578010 -0.000000 -0.000000
LeftFoot -7.242789 -0.070908 -14.210621
LeftToeBase 32.730452 -0.000000 -0.000000
RightUpLeg 10.419555 -36.471327 -4.152270
RightLeg 0.320204 -0.000000 -0.000000
RightFoot -39.778831 -49.688112 31.583331
RightToeBase 20.003039 -0.000000 -0.000000
823
root 16.709592 35.095099 -22.210591 -154.493878 -73.030641 -202.173246
Spine -25.671777 62.127137 -23.968551
Head 8.656340 17.202380 -0.424629
LeftShoulder -13.915749 -19.043670 19.139010
LeftArm -31.640979 2.585075 -23.146603
LeftForeArm 0.283854 -0.000000 -4.559299
LeftHand -13.163214 -0.000000 -4.827667
LeftHandThumb1 -26.253704 0.000000 33.147579
RightShoulder 12.143862 6.475287 -19.283246
RightArm 58.294296 5.472254 42.459179
RightForeArm -36.376760 -0.000000 8.589443
RightHand -8.039573 0.000000 1.184705
RightHandThumb1 -24.326973 -0.000000 -32.862282
LeftUpLeg -15.666674 -35.999046 2.397234
LeftLeg 0.641484 -0.000000 -0.000000
LeftFoot -7.287743 -0.219897 -14.210259
LeftToeBase 32.759670 -0.000000 -0.000000
RightUpLeg 10.564454 -36.491010 -4.290179
RightLeg 0.315565 -0.000000 -0.000000
RightFoot -39.698587 -49.566757 31.486557
RightToeBase 20.182004 -0.000000 -0.000000
824
root 16.683230 35.093947 -22.215755 -154.430882 -72.967471 -202.319431
Spine -25.698498 62.177469 -24.079816
Head 8.869114 17.333827 -0.145724
LeftShoulder -13.831298 -19.014113 19.063861
LeftArm -31.320483 2.431537 -23.143256
LeftForeArm 0.499788 0.000000 -4.566812
LeftHand -13.112377 -0.000000 -4.821897
LeftHandThumb1 -26.253704 0.000000 33.147579
RightShoulder 12.202763 6.508028 -19.290631
RightArm 58.593396 5.267716 42.562101
RightForeArm -36.506124 -0.000000 8.465508
RightHand -7.894437 -0.000000 0.989950
RightHandThumb1 -24.326973 -0.000000 -32.862282
LeftUpLeg -15.551717 -35.936941 2.243214
LeftLeg 0.711844 -0.000000 -0.000000
LeftFoot -7.347919 -0.308674 -14.224649
LeftToeBase 32.808726 -0.000000 -0.000000
RightUpLeg 10.678380 -36.382986 -4.428612
RightLeg 0.348743 -0.000000 -0.000000
RightFoot -39.718393 -49.486213 31.477121
RightToeBase 19.982216 -0.000000 -0.000000
825
root 16.660194 35.093229 -22.217284 -154.440077 -72.866505 -202.365616
Spine -25.802138 62.223398 -24.234178
Head 9.050937 17.407444 0.115119
LeftShoulder -13.752789 -19.004602 19.024248
LeftArm -31.034207 2.334637 -23.156733
LeftForeArm 0.752491 -0.000000 -4.507753
LeftHand -13.173348 -0.000000 -4.609997
LeftHandThumb1 -26.253704 0.000000 33.147579
RightShoulder 12.265069 6.638598 -19.285936
RightArm 58.717680 5.029158 42.641249
RightForeArm -36.573970 -0.000000 8.456572
RightHand -7.775855 0.000000 1.028380
RightHandThumb1 -24.326973 -0.000000 -32.862282
LeftUpLeg -15.478911 -35.857948 2.121722
LeftLeg 0.798219 -0.000000 -0.000000
LeftFoot -7.407369 -0.354202 -14.211363
LeftToeBase 32.753820 -0.000000 -0.000000
RightUpLeg 10.740446 -36.212398 -4.529215
RightLeg 0.389185 -0.000000 -0.000000
RightFoot -39.729107 -49.466079 31.458668
RightToeBase 19.999053 -0.000000 -0.000000
